<?xml version="1.0" encoding="UTF-8"?>
<!DOCTYPE svg PUBLIC "-//W3C//DTD SVG 1.1//EN" "http://www.w3.org/Graphics/SVG/1.1/DTD/svg11.dtd">
<!-- Creator: CorelDRAW 2019 (64-Bit) -->
<svg xmlns="http://www.w3.org/2000/svg" xml:space="preserve" width="40.8884mm" height="6.1637mm" version="1.1" style="shape-rendering:geometricPrecision; text-rendering:geometricPrecision; image-rendering:optimizeQuality; fill-rule:evenodd; clip-rule:evenodd"
viewBox="0 0 32166.02 4848.85"
 xmlns:xlink="http://www.w3.org/1999/xlink">
 <defs>
  <style type="text/css">
   <![CDATA[
    .fil0 {fill:#BDBFC1;fill-rule:nonzero}
   ]]>
  </style>
 </defs>
 <g id="Слой_x0020_1">
  <metadata id="CorelCorpID_0Corel-Layer"/>
  <path class="fil0" d="M1565.25 4755.63l-1565.25 -4662.41 999.08 0 1138.95 3583.4 1132.27 -3583.4 1005.77 0 -1571.86 4662.41 -1138.95 0zm4076.25 -879.19l1964.89 0 0 879.19 -2884.04 0 0 -4662.41 2850.77 0 0 879.19 -1931.61 0 0 992.47 1765.07 0 0 865.82 -1765.07 0 0 1045.73zm4788.98 972.41c-701.56,0 -1281.03,-233.09 -1738.4,-699.36 -457.37,-466.19 -686.06,-1041.25 -686.06,-1725.03 0,-688.26 228.69,-1264.43 686.06,-1728.49 457.37,-463.98 1036.84,-695.97 1738.4,-695.97 421.82,0 811.46,98.81 1168.93,296.34 357.47,197.61 636.11,465.16 835.92,802.65l-792.66 459.58c-115.41,-208.71 -279.74,-371.86 -492.85,-489.55 -213.19,-117.69 -452.97,-176.53 -719.34,-176.53 -452.97,0 -818.15,142.07 -1095.69,426.3 -277.54,284.15 -416.31,652.71 -416.31,1105.68 0,448.41 138.77,814.76 416.31,1098.99 277.54,284.15 642.72,426.22 1095.69,426.22 266.37,0 507.33,-58.84 722.64,-176.45 215.39,-117.69 378.55,-278.64 489.55,-482.94l792.66 459.58c-199.82,337.49 -477.36,605.03 -832.62,802.65 -355.19,197.53 -746.01,296.34 -1172.23,296.34zm5221.89 -4755.63l912.47 0 0 4662.41 -912.47 0 0 -1931.53 -1731.79 0 0 1931.53 -919.16 0 0 -4662.41 919.16 0 0 1851.68 1731.79 0 0 -1851.68zm2697.52 3783.22l1964.89 0 0 879.19 -2884.04 0 0 -4662.41 2850.77 0 0 879.19 -1931.61 0 0 992.47 1765.07 0 0 865.82 -1765.07 0 0 1045.73zm5168.63 879.19l-939.14 -1618.51 -699.36 0 0 1618.51 -919.16 0 0 -4662.41 1864.98 0c430.71,0 797.06,150.96 1098.99,452.89 301.93,302.01 452.97,666.08 452.97,1092.38 0,288.63 -82.21,556.18 -246.47,802.57 -164.34,246.47 -381.85,431.81 -652.79,556.18l1032.44 1758.38 -992.47 0zm-1638.49 -3803.2l0 1378.73 945.82 0c173.15,0 321.91,-67.73 446.28,-203.12 124.3,-135.47 186.44,-298.62 186.44,-489.55 0,-190.93 -62.15,-353.06 -186.44,-486.25 -124.37,-133.18 -273.13,-199.82 -446.28,-199.82l-945.82 0z"/>
  <path class="fil0" d="M28755.77 4755.63l-1059.03 0 -1665.16 -2184.68 0 2184.68 -919.16 0 0 -4662.41 919.16 0 0 2058.11 1598.53 -2058.11 1059.11 0 -1725.11 2264.61 1791.66 2397.8zm1431.99 -879.19l1978.26 0 0 879.19 -3150.49 0 0 -732.63 1938.22 -3050.58 -1891.57 0 0 -879.19 3063.88 0 0 726.03 -1938.3 3057.19z"/>
 </g>
</svg>
